<?xml version="1.0" encoding="utf-8"?>
<!-- Generator: Adobe Illustrator 26.3.1, SVG Export Plug-In . SVG Version: 6.00 Build 0)  -->
<svg version="1.1" id="Warstwa_1" xmlns="http://www.w3.org/2000/svg" xmlns:xlink="http://www.w3.org/1999/xlink" x="0px" y="0px"
	 viewBox="0 0 430 430" style="enable-background:new 0 0 430 430;" xml:space="preserve">
<style type="text/css">
	.Styl_x0020_grafiki_x0020_2007{opacity:0.5;fill:#4bb3fd;}
	.Styl_x0020_grafiki_x0020_2008{fill:#4bb3fd;}
	.st0{fill:#646E78;}
	.st1{fill:none;stroke:#646E78;stroke-width:7;stroke-linecap:round;stroke-linejoin:round;stroke-miterlimit:10;}
	.st2{fill:#EBE6EF;}
	.st3{fill:#121331;}
	.st4{fill:#3A3347;}
	.st5{fill:#92140C;}
	.st6{fill:#F24C00;}
	.st7{opacity:0.5;fill:#F24C00;}
	.st8{opacity:0.5;fill:#EBE6EF;}
	.st9{fill:#FFC738;}
	.st10{opacity:0.5;fill:#FFC738;}
	.st11{fill:#121331;stroke:#EBE6EF;stroke-width:7;stroke-linecap:round;stroke-linejoin:round;stroke-miterlimit:10;}
	.st12{fill:#4bb3fd;}
	.st13{opacity:0.5;fill:#4bb3fd;}
	.st14{fill:none;stroke:#121331;stroke-width:7;stroke-linecap:round;stroke-linejoin:round;stroke-miterlimit:10;}
	.st15{opacity:0.5;}
	.st16{fill:#121331;stroke:#4bb3fd;stroke-width:30;stroke-linecap:round;stroke-linejoin:round;stroke-miterlimit:10;}
	.st17{fill:none;stroke:#121331;stroke-width:12;stroke-linecap:round;stroke-linejoin:round;}
	.st18{fill:#2CA58D;}
	.st19{fill:none;stroke:#08A88A;stroke-width:12;stroke-linecap:round;stroke-linejoin:round;stroke-miterlimit:10;}
	.st20{opacity:0.5;fill:#2CA58D;}
	.st21{opacity:0.5;fill:#646E78;}
	.st22{fill:none;stroke:#FFC738;stroke-width:7;stroke-linecap:round;stroke-linejoin:round;stroke-miterlimit:10;}
	.st23{fill:#3A3347;stroke:#121331;stroke-width:7;stroke-linecap:round;stroke-linejoin:round;stroke-miterlimit:10;}
	.st24{opacity:0.5;fill:#3A3347;}
	.st25{fill:url(#SVGID_1_);}
	.st26{fill:url(#SVGID_00000138534842161541977440000003963014597444320392_);}
	.st27{fill:url(#SVGID_00000112600305190175654960000004203088602315602095_);}
	.st28{fill:#B26836;}
	.st29{opacity:0.5;fill:#92140C;}
	.st30{fill:#F28BA8;}
	.st31{fill:none;stroke:#EBE6EF;stroke-width:7;stroke-linecap:round;stroke-linejoin:round;stroke-miterlimit:10;}
	.st32{opacity:0.5;fill:#B26836;}
	.st33{fill:#08A789;}
	.st34{fill:#FFFFFF;}
	.st35{fill:none;stroke:#B26836;stroke-width:7;stroke-linecap:round;stroke-linejoin:round;stroke-miterlimit:10;}
	.st36{opacity:0.99;fill:#EBE6EF;}
	.st37{fill:#F9C9C0;}
	.st38{opacity:0.5;fill:#F9C9C0;}
	.st39{opacity:0.5;fill:#F28BA8;}
	.st40{fill:none;stroke:#08A284;stroke-width:12;stroke-linecap:round;stroke-linejoin:round;stroke-miterlimit:10;}
	.st41{fill:none;stroke:#92140C;stroke-width:7;stroke-linecap:round;stroke-linejoin:round;stroke-miterlimit:10;}
	.st42{fill:none;stroke:#08A688;stroke-width:12;stroke-linecap:round;stroke-linejoin:round;stroke-miterlimit:10;}
	.st43{opacity:0.96;fill:#EBE6EF;}
	.st44{fill:none;stroke:#121331;stroke-width:12;stroke-linecap:round;stroke-linejoin:round;stroke-miterlimit:10;}
	.st45{fill:#08A88A;}
	.st46{fill:none;stroke:#2CA58D;stroke-width:7;stroke-linecap:round;stroke-linejoin:round;stroke-miterlimit:10;}
	.st47{fill:#121331;stroke:#FFC738;stroke-width:7;stroke-linecap:round;stroke-linejoin:round;stroke-miterlimit:10;}
	.st48{fill:#121331;stroke:#92140C;stroke-width:7;stroke-linejoin:round;stroke-miterlimit:10;}
	.st49{fill:none;stroke:#92140C;stroke-width:7;stroke-linejoin:round;stroke-miterlimit:10;}
	.st50{opacity:0.75;fill:#EBE6EF;}
	.st51{fill:#121331;stroke:#646E78;stroke-width:12;stroke-linecap:round;stroke-linejoin:round;stroke-miterlimit:10;}
	.st52{fill:#E94E12;}
	.st53{fill:#E84F16;}
	.st54{opacity:0.5;fill:#FFFFFF;}
</style>
<g>
	<g>
		<path class="Styl_x0020_grafiki_x0020_2008" d="M345.62,167.47c-0.71-0.28-1.29-0.82-1.61-1.51
			c-20.7-44.24-65.59-74.89-117.66-74.89c-47.39,0-89.62,26.33-112.31,64.28c-0.64,1.07-1.86,1.65-3.08,1.43
			C85.83,152.19,63,174.1,65.53,199.59c0.11,1.15-0.49,2.24-1.48,2.84C42.43,215.32,28.02,239,28.2,266.02
			c0.27,40.51,33.88,72.91,74.4,72.91h209.24c48.96,0,89.57-39.12,89.97-88.08C402.12,212.98,378.74,180.55,345.62,167.47z"/>
		<path class="Styl_x0020_grafiki_x0020_2007" d="M128.65,266.92c0-27.51,15.14-51.51,37.56-64.08
			c-3.95-26.94,20.69-50.55,47.19-44.24c14.5-25.19,37.55-45.45,65.05-56.63c-15.95-7-33.57-10.9-52.11-10.9
			c-47.39,0-89.62,26.33-112.31,64.28c-0.64,1.07-1.86,1.65-3.08,1.43C85.83,152.19,63,174.1,65.53,199.59
			c0.11,1.15-0.49,2.25-1.48,2.84C42.43,215.32,28.02,239,28.2,266.02c0.27,40.51,33.88,72.91,74.4,72.91h85.19
			C154.07,332.29,128.65,302.58,128.65,266.92z"/>
	</g>
	<path class="st4" d="M176.53,284.75c-0.72,0-1.45-0.22-2.07-0.68l-36.98-27.25c-0.9-0.66-1.42-1.71-1.42-2.82s0.53-2.16,1.42-2.82
		l36.98-27.25c1.56-1.15,3.75-0.81,4.89,0.74c1.15,1.56,0.82,3.75-0.74,4.89L145.46,254l33.15,24.43c1.56,1.15,1.89,3.34,0.74,4.89
		C178.67,284.26,177.6,284.75,176.53,284.75z"/>
	<path class="st4" d="M267.47,284.75c-1.07,0-2.13-0.49-2.82-1.42c-1.15-1.56-0.82-3.75,0.74-4.89L298.54,254l-33.15-24.43
		c-1.56-1.15-1.89-3.34-0.74-4.89c1.15-1.56,3.34-1.89,4.89-0.74l36.98,27.25c0.9,0.66,1.42,1.71,1.42,2.82s-0.53,2.16-1.42,2.82
		l-36.98,27.25C268.92,284.53,268.19,284.75,267.47,284.75z"/>
	<path class="st4" d="M212.77,284.75c-0.36,0-0.72-0.06-1.08-0.17c-1.84-0.6-2.85-2.57-2.25-4.41l17.66-54.49
		c0.6-1.84,2.57-2.85,4.41-2.25c1.84,0.6,2.85,2.57,2.25,4.41l-17.65,54.49C215.62,283.81,214.24,284.75,212.77,284.75z"/>
</g>
</svg>
